<svg width="32" height="32" viewBox="0 0 32 32" fill="none" xmlns="http://www.w3.org/2000/svg">
<path d="M12.1428 7.26399C12.9401 4.93066 16.1641 4.85999 17.1095 7.05199L17.1895 7.26532L18.2655 10.412C18.5121 11.1336 18.9105 11.794 19.434 12.3486C19.9575 12.9031 20.5939 13.3389 21.3001 13.6267L21.5895 13.7347L24.7361 14.8093C27.0695 15.6067 27.1401 18.8307 24.9495 19.776L24.7361 19.856L21.5895 20.932C20.8676 21.1784 20.207 21.5768 19.6522 22.1003C19.0974 22.6238 18.6613 23.2603 18.3735 23.9667L18.2655 24.2547L17.1908 27.4027C16.3935 29.736 13.1695 29.8067 12.2255 27.616L12.1428 27.4027L11.0681 24.256C10.8217 23.5341 10.4233 22.8735 9.89979 22.3187C9.37629 21.7639 8.73986 21.3279 8.03347 21.04L7.74547 20.932L4.59881 19.8573C2.26414 19.06 2.19347 15.836 4.38547 14.892L4.59881 14.8093L7.74547 13.7347C8.46712 13.4881 9.12749 13.0896 9.68204 12.5661C10.2366 12.0426 10.6724 11.4062 10.9601 10.7L11.0681 10.412L12.1428 7.26399ZM14.6668 8.12532L13.5921 11.272C13.2167 12.3724 12.6058 13.3777 11.8022 14.218C10.9985 15.0582 10.0214 15.7132 8.93881 16.1373L8.60547 16.2587L5.45881 17.3333L8.60547 18.408C9.70588 18.7835 10.7112 19.3943 11.5515 20.1979C12.3917 21.0016 13.0467 21.9787 13.4708 23.0613L13.5921 23.3947L14.6668 26.5413L15.7415 23.3947C16.117 22.2943 16.7278 21.2889 17.5314 20.4487C18.3351 19.6084 19.3122 18.9534 20.3948 18.5293L20.7281 18.4093L23.8748 17.3333L20.7281 16.2587C19.6277 15.8832 18.6224 15.2723 17.7821 14.4687C16.9419 13.6651 16.2869 12.6879 15.8628 11.6053L15.7428 11.272L14.6668 8.12532ZM25.3335 2.66666C25.5829 2.66666 25.8274 2.73663 26.039 2.86862C26.2507 3.00061 26.4211 3.18933 26.5308 3.41332L26.5948 3.56932L27.0615 4.93732L28.4308 5.40399C28.6808 5.48892 28.8999 5.64614 29.0604 5.85574C29.221 6.06534 29.3157 6.31788 29.3325 6.58135C29.3494 6.84482 29.2876 7.10736 29.1551 7.33571C29.0226 7.56405 28.8253 7.74791 28.5881 7.86399L28.4308 7.92799L27.0628 8.39466L26.5961 9.76399C26.5111 10.0139 26.3537 10.2329 26.144 10.3933C25.9344 10.5537 25.6818 10.6482 25.4183 10.665C25.1549 10.6817 24.8924 10.6198 24.6641 10.4872C24.4359 10.3545 24.2521 10.1571 24.1361 9.91999L24.0721 9.76399L23.6055 8.39599L22.2361 7.92932C21.9862 7.8444 21.767 7.68717 21.6065 7.47757C21.446 7.26797 21.3513 7.01543 21.3344 6.75196C21.3176 6.48849 21.3793 6.22595 21.5118 5.99761C21.6444 5.76927 21.8417 5.5854 22.0788 5.46932L22.2361 5.40532L23.6041 4.93866L24.0708 3.56932C24.1607 3.30589 24.3308 3.0772 24.5573 2.91532C24.7837 2.75344 25.0551 2.66649 25.3335 2.66666Z" fill="#394867"/>
</svg>
