<svg width="64" height="64" viewBox="0 0 64 64" fill="none" xmlns="http://www.w3.org/2000/svg">
    <path d="M18.6667 48V45.3333C18.6667 41.7971 20.0714 38.4057 22.5719 35.9052C25.0724 33.4048 28.4638 32 32 32M32 32C35.5362 32 38.9276 33.4048 41.4281 35.9052C43.9286 38.4057 45.3334 41.7971 45.3334 45.3333V48M32 32C34.1218 32 36.1566 31.1571 37.6569 29.6569C39.1572 28.1566 40 26.1217 40 24C40 21.8783 39.1572 19.8434 37.6569 18.3431C36.1566 16.8429 34.1218 16 32 16C29.8783 16 27.8435 16.8429 26.3432 18.3431C24.8429 19.8434 24 21.8783 24 24C24 26.1217 24.8429 28.1566 26.3432 29.6569C27.8435 31.1571 29.8783 32 32 32ZM2.66669 48V45.3333C2.66669 43.2116 3.50954 41.1768 5.00983 39.6765C6.51012 38.1762 8.54496 37.3333 10.6667 37.3333M10.6667 37.3333C12.0812 37.3333 13.4377 36.7714 14.4379 35.7712C15.4381 34.771 16 33.4145 16 32C16 30.5855 15.4381 29.229 14.4379 28.2288C13.4377 27.2286 12.0812 26.6667 10.6667 26.6667C9.2522 26.6667 7.89564 27.2286 6.89545 28.2288C5.89526 29.229 5.33335 30.5855 5.33335 32C5.33335 33.4145 5.89526 34.771 6.89545 35.7712C7.89564 36.7714 9.2522 37.3333 10.6667 37.3333ZM61.3334 48V45.3333C61.3334 43.2116 60.4905 41.1768 58.9902 39.6765C57.4899 38.1762 55.4551 37.3333 53.3334 37.3333M53.3334 37.3333C54.7478 37.3333 56.1044 36.7714 57.1046 35.7712C58.1048 34.771 58.6667 33.4145 58.6667 32C58.6667 30.5855 58.1048 29.229 57.1046 28.2288C56.1044 27.2286 54.7478 26.6667 53.3334 26.6667C51.9189 26.6667 50.5623 27.2286 49.5621 28.2288C48.5619 29.229 48 30.5855 48 32C48 33.4145 48.5619 34.771 49.5621 35.7712C50.5623 36.7714 51.9189 37.3333 53.3334 37.3333Z" stroke="#212A3E" stroke-width="4" stroke-linecap="round" stroke-linejoin="round"/>
</svg>
    