<svg width="32" height="32" viewBox="0 0 32 32" fill="none" xmlns="http://www.w3.org/2000/svg">
<path d="M25.4936 17.9459H20.4666C19.8002 17.9453 19.1608 18.2089 18.6885 18.679C18.2162 19.1491 17.9496 19.7873 17.9472 20.4536V25.4806C17.9469 25.8116 18.0118 26.1394 18.1383 26.4452C18.2648 26.751 18.4504 27.0288 18.6844 27.2629C18.9184 27.4969 19.1963 27.6824 19.5021 27.8089C19.8079 27.9354 20.1357 28.0003 20.4666 28H25.4936C26.1598 27.9973 26.7976 27.7305 27.2674 27.2583C27.7373 26.786 28.0007 26.1468 28 25.4806V20.4536C28.0003 20.1244 27.9357 19.7983 27.8099 19.4941C27.6841 19.1898 27.4995 18.9134 27.2667 18.6806C27.0339 18.4478 26.7574 18.2632 26.4532 18.1373C26.1489 18.0115 25.8229 17.9469 25.4936 17.9472M11.5334 17.9459H6.50638C5.84034 17.9497 5.20286 18.2169 4.73323 18.6893C4.2636 19.1616 3.99999 19.8005 4 20.4666V25.4936C3.99966 25.8229 4.06426 26.1489 4.19009 26.4532C4.31593 26.7574 4.50053 27.0339 4.73334 27.2667C4.96615 27.4995 5.24258 27.6841 5.54683 27.8099C5.85107 27.9357 6.17714 28.0003 6.50638 28H11.5334C12.1995 28.0007 12.8388 27.7373 13.311 27.2674C13.7833 26.7976 14.05 26.1598 14.0528 25.4936V20.4666C14.0531 20.1357 13.9882 19.8079 13.8617 19.5021C13.7352 19.1963 13.5496 18.9184 13.3156 18.6844C13.0816 18.4504 12.8037 18.2648 12.4979 18.1383C12.1921 18.0118 11.8643 17.9469 11.5334 17.9472M11.5334 4H6.50638C6.17714 3.99966 5.85107 4.06426 5.54683 4.19009C5.24258 4.31593 4.96615 4.50053 4.73334 4.73334C4.50053 4.96615 4.31593 5.24258 4.19009 5.54683C4.06426 5.85107 3.99966 6.17714 4 6.50638V11.5334C3.99931 12.1995 4.26274 12.8388 4.73255 13.311C5.20237 13.7833 5.84024 14.05 6.50638 14.0528H11.5334C11.8643 14.0531 12.1921 13.9882 12.4979 13.8617C12.8037 13.7352 13.0816 13.5496 13.3156 13.3156C13.5496 13.0816 13.7352 12.8037 13.8617 12.4979C13.9882 12.1921 14.0531 11.8643 14.0528 11.5334V6.50638C14.05 5.84024 13.7833 5.20237 13.311 4.73255C12.8388 4.26274 12.1995 3.99931 11.5334 4ZM25.4936 4H20.4666C19.8005 3.99931 19.1612 4.26274 18.689 4.73255C18.2167 5.20237 17.95 5.84024 17.9472 6.50638V11.5334C17.9476 12.2015 18.2131 12.8421 18.6855 13.3145C19.1579 13.7869 19.7985 14.0524 20.4666 14.0528H25.4936C26.1598 14.05 26.7976 13.7833 27.2674 13.311C27.7373 12.8388 28.0007 12.1995 28 11.5334V6.50638C28.0003 6.17714 27.9357 5.85107 27.8099 5.54683C27.6841 5.24258 27.4995 4.96615 27.2667 4.73334C27.0339 4.50053 26.7574 4.31593 26.4532 4.19009C26.1489 4.06426 25.8229 3.99966 25.4936 4Z" stroke="#394867" stroke-width="3" stroke-linecap="round" stroke-linejoin="round"/>
</svg>
