<svg width="64" height="64" viewBox="0 0 64 64" fill="none" xmlns="http://www.w3.org/2000/svg">
    <path fill-rule="evenodd" clip-rule="evenodd" d="M40.008 10.6667C41.992 10.6667 44.088 11.3601 46.008 12.1254L47.4133 12.7014C50.7733 14.1094 52.6613 17.0641 54.1253 20.3094C56.5013 25.5761 58.152 32.5974 58.7227 37.9361C58.9947 40.4694 59.0613 43.0187 58.5733 44.7334C58.048 46.5654 56.2613 47.8614 54.5253 48.8801L53.6667 49.3681L52.776 49.8641C52.3138 50.1201 51.8471 50.3725 51.376 50.6214L49.984 51.3414L48.072 52.2934L46.5333 53.0507C46.219 53.2203 45.8738 53.3249 45.5183 53.3585C45.1627 53.392 44.804 53.3538 44.4635 53.2462C44.123 53.1385 43.8076 52.9635 43.536 52.7316C43.2644 52.4997 43.0422 52.2156 42.8825 51.8962C42.7228 51.5768 42.6288 51.2285 42.6063 50.8721C42.5837 50.5157 42.633 50.1584 42.7511 49.8213C42.8693 49.4843 43.0539 49.1745 43.2941 48.9102C43.5343 48.6459 43.8251 48.4325 44.1493 48.2828L46.256 47.2427L44.7093 45.6188C41.0027 47.1387 36.6373 48.0001 32 48.0001C27.3627 48.0001 22.9973 47.1414 19.2907 45.6188L17.744 47.2401L19.8587 48.2801C20.1721 48.4366 20.4516 48.6534 20.6813 48.9179C20.9109 49.1825 21.0862 49.4897 21.1972 49.822C21.3081 50.1543 21.3525 50.5052 21.3278 50.8547C21.3031 51.2041 21.2099 51.5453 21.0533 51.8587C20.8968 52.1722 20.68 52.4517 20.4155 52.6814C20.1509 52.911 19.8437 53.0863 19.5114 53.1972C18.8403 53.4213 18.1076 53.3696 17.4747 53.0534L16.024 52.3334C14.952 51.8001 13.8773 51.2721 12.816 50.7147L10.3413 49.3681L9.48532 48.8801C7.74932 47.8614 5.95999 46.5654 5.43732 44.7334C4.94665 43.0187 5.01599 40.4721 5.28532 37.9334C5.85599 32.5974 7.50665 25.5761 9.88265 20.3094C11.3467 17.0641 13.2347 14.1094 16.5947 12.7014C18.824 11.7681 21.5253 10.6667 24 10.6667C25.608 10.6667 26.872 12.1467 26.64 13.7254C28.4149 13.4662 30.2062 13.3351 32 13.3334C33.8427 13.3334 35.6427 13.4667 37.3707 13.7281C37.3193 13.3494 37.3489 12.9641 37.4576 12.5977C37.5663 12.2313 37.7515 11.8922 38.0011 11.6028C38.2507 11.3134 38.5589 11.0803 38.9053 10.9189C39.2518 10.7575 39.6259 10.6716 40.008 10.6667ZM23.3333 28.0001C22.0956 28.0001 20.9087 28.4917 20.0335 29.3669C19.1583 30.2421 18.6667 31.4291 18.6667 32.6667C18.6667 33.9044 19.1583 35.0914 20.0335 35.9666C20.9087 36.8418 22.0956 37.3334 23.3333 37.3334C24.571 37.3334 25.758 36.8418 26.6332 35.9666C27.5083 35.0914 28 33.9044 28 32.6667C28 31.4291 27.5083 30.2421 26.6332 29.3669C25.758 28.4917 24.571 28.0001 23.3333 28.0001ZM40.6667 28.0001C39.429 28.0001 38.242 28.4917 37.3668 29.3669C36.4917 30.2421 36 31.4291 36 32.6667C36 33.9044 36.4917 35.0914 37.3668 35.9666C38.242 36.8418 39.429 37.3334 40.6667 37.3334C41.9043 37.3334 43.0913 36.8418 43.9665 35.9666C44.8417 35.0914 45.3333 33.9044 45.3333 32.6667C45.3333 31.4291 44.8417 30.2421 43.9665 29.3669C43.0913 28.4917 41.9043 28.0001 40.6667 28.0001Z" fill="#F1F6F9"/>
</svg>
    