<svg width="64" height="64" viewBox="0 0 64 64" fill="none" xmlns="http://www.w3.org/2000/svg">
    <path d="M56.5 46.6875H7.5C7.225 46.6875 7 46.9125 7 47.1875V50.6875C7 50.9625 7.225 51.1875 7.5 51.1875H56.5C56.775 51.1875 57 50.9625 57 50.6875V47.1875C57 46.9125 56.775 46.6875 56.5 46.6875ZM10.3562 38.8625L12.8375 41.3312C13.0312 41.525 13.35 41.525 13.5437 41.3312L28.2125 26.7125L34.3125 32.7937C34.6883 33.1661 35.196 33.375 35.725 33.375C36.254 33.375 36.7617 33.1661 37.1375 32.7937L53.65 16.3437C53.8438 16.15 53.8438 15.8312 53.65 15.6375L51.1688 13.1625C51.0748 13.0694 50.9479 13.0172 50.8156 13.0172C50.6834 13.0172 50.5565 13.0694 50.4625 13.1625L35.7313 27.85L29.625 21.7687C29.2492 21.3964 28.7415 21.1875 28.2125 21.1875C27.6835 21.1875 27.1758 21.3964 26.8 21.7687L10.3562 38.1562C10.3095 38.2024 10.2724 38.2574 10.247 38.318C10.2217 38.3786 10.2087 38.4436 10.2087 38.5093C10.2087 38.575 10.2217 38.6401 10.247 38.7007C10.2724 38.7613 10.3095 38.8163 10.3562 38.8625Z" fill="#212A3E"/>
</svg>
    