<svg width="64" height="64" viewBox="0 0 64 64" fill="none" xmlns="http://www.w3.org/2000/svg">
    <path d="M54.5867 5.33338H9.41335C8.90556 5.32633 8.40135 5.41937 7.92952 5.6072C7.45769 5.79503 7.02749 6.07397 6.66347 6.42808C6.29946 6.78219 6.00876 7.20454 5.80799 7.67101C5.60722 8.13747 5.5003 8.63892 5.49335 9.14671V54.8534C5.5003 55.3612 5.60722 55.8626 5.80799 56.3291C6.00876 56.7956 6.29946 57.2179 6.66347 57.572C7.02749 57.9261 7.45769 58.2051 7.92952 58.3929C8.40135 58.5807 8.90556 58.6738 9.41335 58.6667H54.5867C55.0945 58.6738 55.5987 58.5807 56.0705 58.3929C56.5423 58.2051 56.9725 57.9261 57.3366 57.572C57.7006 57.2179 57.9913 56.7956 58.192 56.3291C58.3928 55.8626 58.4997 55.3612 58.5067 54.8534V9.14671C58.4997 8.63892 58.3928 8.13747 58.192 7.67101C57.9913 7.20454 57.7006 6.78219 57.3366 6.42808C56.9725 6.07397 56.5423 5.79503 56.0705 5.6072C55.5987 5.41937 55.0945 5.32633 54.5867 5.33338ZM21.5733 49.9734H13.5733V25.9734H21.5733V49.9734ZM17.5733 22.6134C16.47 22.6134 15.4119 22.1751 14.6318 21.3949C13.8516 20.6148 13.4133 19.5567 13.4133 18.4534C13.4133 17.3501 13.8516 16.292 14.6318 15.5118C15.4119 14.7317 16.47 14.2934 17.5733 14.2934C18.1592 14.2269 18.7525 14.285 19.3143 14.4637C19.8762 14.6425 20.394 14.9379 20.8338 15.3306C21.2735 15.7233 21.6254 16.2045 21.8663 16.7427C22.1073 17.2808 22.2318 17.8638 22.2318 18.4534C22.2318 19.043 22.1073 19.626 21.8663 20.1641C21.6254 20.7022 21.2735 21.1834 20.8338 21.5762C20.394 21.9689 19.8762 22.2643 19.3143 22.443C18.7525 22.6218 18.1592 22.6798 17.5733 22.6134ZM50.4267 49.9734H42.4267V37.0934C42.4267 33.8667 41.28 31.76 38.3733 31.76C37.4738 31.7666 36.5979 32.0488 35.8636 32.5685C35.1293 33.0882 34.572 33.8205 34.2667 34.6667C34.058 35.2935 33.9676 35.9536 34 36.6134V49.9467H26V25.9467H34V29.3334C34.7268 28.0723 35.7838 27.0334 37.0572 26.3286C38.3306 25.6237 39.7722 25.2797 41.2267 25.3334C46.56 25.3334 50.4267 28.7734 50.4267 36.16V49.9734Z" fill="#F1F6F9"/>
</svg>
    