<svg width="32" height="32" viewBox="0 0 32 32" fill="none" xmlns="http://www.w3.org/2000/svg">
<path d="M22 0H10C4.47715 0 0 4.47715 0 10V22C0 27.5228 4.47715 32 10 32H22C27.5228 32 32 27.5228 32 22V10C32 4.47715 27.5228 0 22 0Z" fill="#394867"/>
<path d="M15.9201 28.4C22.9894 28.4 28.7201 22.6692 28.7201 15.6C28.7201 8.53075 22.9894 2.8 15.9201 2.8C8.85087 2.8 3.12012 8.53075 3.12012 15.6C3.12012 22.6692 8.85087 28.4 15.9201 28.4Z" fill="white"/>
<path d="M10.3059 12.32L10.1411 12.4864L9.0259 13.6L9.0099 13.6176L7.9059 14.72L7.8787 14.7488L6.7859 15.84H11.2323L11.2723 15.88L10.1923 16.96H5.6659L5.6147 17.0128L4.5459 18.08H11.3347L13.5747 15.84L14.6675 14.7488L14.6947 14.72H10.1699L11.2899 13.6H18.0787L18.0627 13.6176L16.9587 14.72L14.7187 16.96L14.6675 17.0128L13.5987 18.08H15.8611L18.1011 15.84L19.1939 14.7488L20.2851 15.84L20.3251 15.88L19.2451 16.96L19.1939 17.0128L18.1251 18.08H20.3875L21.4563 17.0112L22.5251 18.08H24.7875L22.5875 15.88L23.7475 14.72L24.8515 13.6176L24.8675 13.6L26.1475 12.32H10.3059ZM21.4563 14.7488L20.3251 13.6176L20.3411 13.6H22.6051L21.4563 14.7488Z" fill="#212A3E"/>
</svg>
