<svg width="32" height="32" viewBox="0 0 32 32" fill="none" xmlns="http://www.w3.org/2000/svg">
<path d="M4 5.5C4 3.568 5.568 2 7.5 2H12.5C12.8978 2 13.2794 2.15804 13.5607 2.43934C13.842 2.72064 14 3.10218 14 3.5C14 3.89782 13.842 4.27936 13.5607 4.56066C13.2794 4.84196 12.8978 5 12.5 5H7.5C7.36739 5 7.24021 5.05268 7.14645 5.14645C7.05268 5.24021 7 5.36739 7 5.5V26.5C7 26.776 7.224 27 7.5 27H12.5C12.8978 27 13.2794 27.158 13.5607 27.4393C13.842 27.7206 14 28.1022 14 28.5C14 28.8978 13.842 29.2794 13.5607 29.5607C13.2794 29.842 12.8978 30 12.5 30H7.5C6.57174 30 5.6815 29.6313 5.02513 28.9749C4.36875 28.3185 4 27.4283 4 26.5V5.5ZM24.88 14.5L20.94 10.56C20.7426 10.3767 20.5982 10.1435 20.5222 9.88495C20.4462 9.62646 20.4413 9.35224 20.508 9.09119C20.5747 8.83014 20.7107 8.59193 20.9014 8.40165C21.0922 8.21137 21.3308 8.07607 21.592 8.01C21.8528 7.94338 22.1266 7.94815 22.3849 8.02381C22.6432 8.09947 22.8764 8.24322 23.06 8.44L29.56 14.94C29.8409 15.2213 29.9987 15.6025 29.9987 16C29.9987 16.3975 29.8409 16.7787 29.56 17.06L23.06 23.56C22.8767 23.7574 22.6434 23.9018 22.385 23.9778C22.1265 24.0538 21.8522 24.0587 21.5912 23.992C21.3301 23.9253 21.0919 23.7893 20.9016 23.5986C20.7114 23.4078 20.5761 23.1692 20.51 22.908C20.4434 22.6472 20.4482 22.3734 20.5238 22.1151C20.5995 21.8568 20.7432 21.6236 20.94 21.44L24.88 17.5H13.5C13.1022 17.5 12.7206 17.342 12.4393 17.0607C12.158 16.7794 12 16.3978 12 16C12 15.6022 12.158 15.2206 12.4393 14.9393C12.7206 14.658 13.1022 14.5 13.5 14.5H24.88Z" fill="#394867"/>
</svg>
