<svg width="32" height="32" viewBox="0 0 32 32" fill="none" xmlns="http://www.w3.org/2000/svg">
<path d="M16.7362 10.6667C16.3825 10.6667 16.0434 10.8071 15.7934 11.0572C15.5433 11.3072 15.4028 11.6464 15.4028 12C15.4028 12.3536 15.5433 12.6928 15.7934 12.9428C16.0434 13.1928 16.3825 13.3333 16.7362 13.3333H22.0695C22.4231 13.3333 22.7623 13.1928 23.0123 12.9428C23.2624 12.6928 23.4028 12.3536 23.4028 12C23.4028 11.6464 23.2624 11.3072 23.0123 11.0572C22.7623 10.8071 22.4231 10.6667 22.0695 10.6667H16.7362ZM16.7362 22.6667C16.3825 22.6667 16.0434 22.8071 15.7934 23.0572C15.5433 23.3072 15.4028 23.6464 15.4028 24C15.4028 24.3536 15.5433 24.6928 15.7934 24.9428C16.0434 25.1928 16.3825 25.3333 16.7362 25.3333H22.0695C22.4231 25.3333 22.7623 25.1928 23.0123 24.9428C23.2624 24.6928 23.4028 24.3536 23.4028 24C23.4028 23.6464 23.2624 23.3072 23.0123 23.0572C22.7623 22.8071 22.4231 22.6667 22.0695 22.6667H16.7362Z" fill="#394867" fill-opacity="0.5"/>
<path d="M16.7362 6.66666C16.3825 6.66666 16.0434 6.80713 15.7934 7.05718C15.5433 7.30723 15.4028 7.64637 15.4028 7.99999C15.4028 8.35361 15.5433 8.69275 15.7934 8.9428C16.0434 9.19285 16.3825 9.33332 16.7362 9.33332H27.4028C27.7565 9.33332 28.0956 9.19285 28.3456 8.9428C28.5957 8.69275 28.7362 8.35361 28.7362 7.99999C28.7362 7.64637 28.5957 7.30723 28.3456 7.05718C28.0956 6.80713 27.7565 6.66666 27.4028 6.66666H16.7362ZM16.7362 18.6667C16.3825 18.6667 16.0434 18.8071 15.7934 19.0572C15.5433 19.3072 15.4028 19.6464 15.4028 20C15.4028 20.3536 15.5433 20.6928 15.7934 20.9428C16.0434 21.1928 16.3825 21.3333 16.7362 21.3333H27.4028C27.7565 21.3333 28.0956 21.1928 28.3456 20.9428C28.5957 20.6928 28.7362 20.3536 28.7362 20C28.7362 19.6464 28.5957 19.3072 28.3456 19.0572C28.0956 18.8071 27.7565 18.6667 27.4028 18.6667H16.7362Z" fill="#394867" fill-opacity="0.8"/>
<path d="M4.59749 5.336C4.24387 5.336 3.90473 5.47647 3.65468 5.72652C3.40464 5.97657 3.26416 6.31571 3.26416 6.66933V13.336C3.26416 13.6896 3.40464 14.0288 3.65468 14.2788C3.90473 14.5289 4.24387 14.6693 4.59749 14.6693H11.2642C11.6178 14.6693 11.9569 14.5289 12.207 14.2788C12.457 14.0288 12.5975 13.6896 12.5975 13.336V6.66933C12.5975 6.31571 12.457 5.97657 12.207 5.72652C11.9569 5.47647 11.6178 5.336 11.2642 5.336H4.59749ZM4.59749 17.3307C4.24387 17.3307 3.90473 17.4711 3.65468 17.7212C3.40464 17.9712 3.26416 18.3104 3.26416 18.664V25.3307C3.26416 25.6843 3.40464 26.0234 3.65468 26.2735C3.90473 26.5235 4.24387 26.664 4.59749 26.664H11.2642C11.6178 26.664 11.9569 26.5235 12.207 26.2735C12.457 26.0234 12.5975 25.6843 12.5975 25.3307V18.664C12.5975 18.3104 12.457 17.9712 12.207 17.7212C11.9569 17.4711 11.6178 17.3307 11.2642 17.3307H4.59749Z" fill="#394867"/>
</svg>
